<svg width="20" height="20" viewBox="0 0 20 20" fill="none" xmlns="http://www.w3.org/2000/svg">
  <path fill-rule="evenodd" clip-rule="evenodd" d="M15.0001 15.8333C14.5401 15.8333 14.1667 15.46 14.1667 15C14.1667 14.54 14.5401 14.1667 15.0001 14.1667C15.4601 14.1667 15.8334 14.54 15.8334 15C15.8334 15.46 15.4601 15.8333 15.0001 15.8333ZM4.16675 10.8333C3.70675 10.8333 3.33341 10.46 3.33341 10C3.33341 9.54 3.70675 9.16667 4.16675 9.16667C4.62675 9.16667 5.00008 9.54 5.00008 10C5.00008 10.46 4.62675 10.8333 4.16675 10.8333ZM15.0001 4.16667C15.4601 4.16667 15.8334 4.54 15.8334 5C15.8334 5.46 15.4601 5.83333 15.0001 5.83333C14.5401 5.83333 14.1667 5.46 14.1667 5C14.1667 4.54 14.5401 4.16667 15.0001 4.16667ZM15.0001 12.5C14.3192 12.5 13.7026 12.775 13.2509 13.2175L6.63841 10.2792C6.64925 10.1867 6.66675 10.095 6.66675 10C6.66675 9.905 6.64925 9.81333 6.63841 9.72083L13.2509 6.7825C13.7026 7.225 14.3192 7.5 15.0001 7.5C16.3784 7.5 17.5001 6.37833 17.5001 5C17.5001 3.62167 16.3784 2.5 15.0001 2.5C13.6217 2.5 12.5001 3.62167 12.5001 5C12.5001 5.095 12.5176 5.18667 12.5284 5.27917L5.91591 8.2175C5.46425 7.775 4.84758 7.5 4.16675 7.5C2.78841 7.5 1.66675 8.62167 1.66675 10C1.66675 11.3783 2.78841 12.5 4.16675 12.5C4.84758 12.5 5.46425 12.225 5.91591 11.7825L12.5284 14.7208C12.5176 14.8133 12.5001 14.905 12.5001 15C12.5001 16.3783 13.6217 17.5 15.0001 17.5C16.3784 17.5 17.5001 16.3783 17.5001 15C17.5001 13.6217 16.3784 12.5 15.0001 12.5Z" fill="#757D8A"/>
</svg>